<?xml version="1.0" encoding="utf-8"?>
<!-- Generator: Adobe Illustrator 26.4.1, SVG Export Plug-In . SVG Version: 6.00 Build 0)  -->
<svg version="1.2" baseProfile="tiny" id="Layer_1" xmlns="http://www.w3.org/2000/svg" xmlns:xlink="http://www.w3.org/1999/xlink"
	 x="0px" y="0px" viewBox="0 0 640 320" overflow="visible" xml:space="preserve">
<rect fill="#DFE2F2" width="640" height="320"/>
<g>
	<g>
		<path fill="#FF7F00" d="M346,113.1h-52c-1.1,0-2-0.9-2-2s0.9-2,2-2h52c1.1,0,2,0.9,2,2S347.1,113.1,346,113.1z"/>
	</g>
	<g>
		<path fill="#000F4C" d="M346,125.1h-52c-1.1,0-2-0.9-2-2s0.9-2,2-2h52c1.1,0,2,0.9,2,2S347.1,125.1,346,125.1z"/>
	</g>
	<g>
		<path fill="#FF7F00" d="M346,137.1h-52c-1.1,0-2-0.9-2-2s0.9-2,2-2h52c1.1,0,2,0.9,2,2S347.1,137.1,346,137.1z"/>
	</g>
	<g>
		<path fill="#000F4C" d="M346,149.1h-52c-1.1,0-2-0.9-2-2s0.9-2,2-2h52c1.1,0,2,0.9,2,2S347.1,149.1,346,149.1z"/>
	</g>
	<g>
		<path fill="#FF7F00" d="M346,161.1h-52c-1.1,0-2-0.9-2-2s0.9-2,2-2h52c1.1,0,2,0.9,2,2S347.1,161.1,346,161.1z"/>
	</g>
	<g>
		<path fill="#000F4C" d="M346,173.1h-52c-1.1,0-2-0.9-2-2s0.9-2,2-2h52c1.1,0,2,0.9,2,2S347.1,173.1,346,173.1z"/>
	</g>
	<g>
		<path fill="#FF7F00" d="M346,185.1h-52c-1.1,0-2-0.9-2-2s0.9-2,2-2h52c1.1,0,2,0.9,2,2S347.1,185.1,346,185.1z"/>
	</g>
	<g>
		<path fill="#000F4C" d="M322.9,197.1H294c-1.1,0-2-0.9-2-2s0.9-2,2-2h28.9c1.1,0,2,0.9,2,2S324,197.1,322.9,197.1z"/>
	</g>
</g>
<g>
	<path fill="#000F4C" d="M398,252.9H242c-1.1,0-2-0.9-2-2s0.9-2,2-2h156c1.1,0,2,0.9,2,2S399.1,252.9,398,252.9z"/>
</g>
<g>
	<path fill="#000F4C" d="M234,252.9h-12c-1.1,0-2-0.9-2-2s0.9-2,2-2h12c1.1,0,2,0.9,2,2S235.1,252.9,234,252.9z"/>
</g>
<g>
	<path fill="#000F4C" d="M213.9,252.9h-4c-1.1,0-2-0.9-2-2s0.9-2,2-2h4c1.1,0,2,0.9,2,2S215,252.9,213.9,252.9z"/>
</g>
<g>
	<path fill="#000F4C" d="M430.1,252.9h-4c-1.1,0-2-0.9-2-2s0.9-2,2-2h4c1.1,0,2,0.9,2,2S431.2,252.9,430.1,252.9z"/>
</g>
<g>
	<path fill="#000F4C" d="M418.1,252.9h-12c-1.1,0-2-0.9-2-2s0.9-2,2-2h12c1.1,0,2,0.9,2,2S419.2,252.9,418.1,252.9z"/>
</g>
<g>
	<g>
		<path fill="#FF7F00" d="M338,272h-36c-1.1,0-2-0.9-2-2s0.9-2,2-2h36c1.1,0,2,0.9,2,2S339.1,272,338,272z"/>
	</g>
	<g>
		<path fill="#FF7F00" d="M320,271.5c-1.1,0-2-0.9-2-2v-6.7c0-1.1,0.9-2,2-2s2,0.9,2,2v6.7C322,270.6,321.1,271.5,320,271.5z"/>
	</g>
	<g>
		<path fill="#FF7F00" d="M358,264.1h-76c-1.1,0-2-0.9-2-2s0.9-2,2-2h76c1.1,0,2,0.9,2,2S359.1,264.1,358,264.1z"/>
	</g>
	<g>
		<path fill="#FF7F00" d="M273.9,264.1h-20c-1.1,0-2-0.9-2-2s0.9-2,2-2h20c1.1,0,2,0.9,2,2S275,264.1,273.9,264.1z"/>
	</g>
	<g>
		<path fill="#FF7F00" d="M385,264.1h-20c-1.1,0-2-0.9-2-2s0.9-2,2-2h20c1.1,0,2,0.9,2,2S386.1,264.1,385,264.1z"/>
	</g>
</g>
<g>
	<path fill="#000F4C" d="M320,209.1c11,0,20,9,20,20s-9,20-20,20s-20-9-20-20S309,209.1,320,209.1 M320,205.1c-13.3,0-24,10.7-24,24
		c0,13.3,10.7,24,24,24c13.3,0,24-10.7,24-24C344,215.8,333.3,205.1,320,205.1L320,205.1z"/>
</g>
<g>
	<path fill="#000F4C" d="M266,211.1h-35.4c-4.7,0-8.6-3.8-8.6-8.6v-82.9c0-4.7,3.8-8.6,8.6-8.6H266c1.1,0,2,0.9,2,2s-0.9,2-2,2
		h-35.4c-2.5,0-4.6,2.1-4.6,4.6v82.9c0,2.5,2.1,4.6,4.6,4.6H266c1.1,0,2,0.9,2,2S267.1,211.1,266,211.1z"/>
</g>
<g>
	<path fill="#000F4C" d="M409.4,211.1H374c-1.1,0-2-0.9-2-2s0.9-2,2-2h35.5c2.5,0,4.6-2.1,4.6-4.6v-82.9c0-2.5-2.1-4.6-4.6-4.6H374
		c-1.1,0-2-0.9-2-2s0.9-2,2-2h35.5c4.7,0,8.6,3.8,8.6,8.6v82.9C418,207.2,414.2,211.1,409.4,211.1z"/>
</g>
<g>
	<path fill="#000F4C" d="M354.5,225.1H343c-1.1,0-2-0.9-2-2s0.9-2,2-2h11.5c3.1,0,5.6-2.6,5.6-5.7V106.7c0-3.2-2.5-5.7-5.6-5.7
		h-68.9c-3.1,0-5.6,2.6-5.6,5.7v108.7c0,3.2,2.5,5.7,5.6,5.7H297c1.1,0,2,0.9,2,2s-0.9,2-2,2h-11.5c-5.3,0-9.6-4.4-9.6-9.7V106.7
		c0-5.4,4.3-9.7,9.6-9.7h68.9c5.3,0,9.6,4.4,9.6,9.7v108.7C364.1,220.8,359.8,225.1,354.5,225.1z"/>
</g>
<g>
	<g>
		<path fill="#000F4C" d="M266,125.1h-14c-1.1,0-2-0.9-2-2s0.9-2,2-2h14c1.1,0,2,0.9,2,2S267.1,125.1,266,125.1z"/>
	</g>
	<g>
		<path fill="#000F4C" d="M266,136h-14c-1.1,0-2-0.9-2-2s0.9-2,2-2h14c1.1,0,2,0.9,2,2S267.1,136,266,136z"/>
	</g>
	<g>
		<path fill="#000F4C" d="M266,146.8h-14c-1.1,0-2-0.9-2-2s0.9-2,2-2h14c1.1,0,2,0.9,2,2S267.1,146.8,266,146.8z"/>
	</g>
	<g>
		<path fill="#000F4C" d="M266,157.7h-14c-1.1,0-2-0.9-2-2s0.9-2,2-2h14c1.1,0,2,0.9,2,2S267.1,157.7,266,157.7z"/>
	</g>
	<g>
		<path fill="#000F4C" d="M266,168.5h-14c-1.1,0-2-0.9-2-2s0.9-2,2-2h14c1.1,0,2,0.9,2,2S267.1,168.5,266,168.5z"/>
	</g>
	<g>
		<path fill="#000F4C" d="M266,179.4h-14c-1.1,0-2-0.9-2-2s0.9-2,2-2h14c1.1,0,2,0.9,2,2S267.1,179.4,266,179.4z"/>
	</g>
	<g>
		<path fill="#000F4C" d="M266,190.2h-14c-1.1,0-2-0.9-2-2s0.9-2,2-2h14c1.1,0,2,0.9,2,2S267.1,190.2,266,190.2z"/>
	</g>
	<g>
		<path fill="#000F4C" d="M266,201.1h-14c-1.1,0-2-0.9-2-2s0.9-2,2-2h14c1.1,0,2,0.9,2,2S267.1,201.1,266,201.1z"/>
	</g>
</g>
<g>
	<g>
		<path fill="#000F4C" d="M388,125.1h-14c-1.1,0-2-0.9-2-2s0.9-2,2-2h14c1.1,0,2,0.9,2,2S389.1,125.1,388,125.1z"/>
	</g>
	<g>
		<path fill="#000F4C" d="M388,136h-14c-1.1,0-2-0.9-2-2s0.9-2,2-2h14c1.1,0,2,0.9,2,2S389.1,136,388,136z"/>
	</g>
	<g>
		<path fill="#000F4C" d="M388,146.8h-14c-1.1,0-2-0.9-2-2s0.9-2,2-2h14c1.1,0,2,0.9,2,2S389.1,146.8,388,146.8z"/>
	</g>
	<g>
		<path fill="#000F4C" d="M388,157.7h-14c-1.1,0-2-0.9-2-2s0.9-2,2-2h14c1.1,0,2,0.9,2,2S389.1,157.7,388,157.7z"/>
	</g>
	<g>
		<path fill="#000F4C" d="M388,168.5h-14c-1.1,0-2-0.9-2-2s0.9-2,2-2h14c1.1,0,2,0.9,2,2S389.1,168.5,388,168.5z"/>
	</g>
	<g>
		<path fill="#000F4C" d="M388,179.4h-14c-1.1,0-2-0.9-2-2s0.9-2,2-2h14c1.1,0,2,0.9,2,2S389.1,179.4,388,179.4z"/>
	</g>
	<g>
		<path fill="#000F4C" d="M388,190.2h-14c-1.1,0-2-0.9-2-2s0.9-2,2-2h14c1.1,0,2,0.9,2,2S389.1,190.2,388,190.2z"/>
	</g>
	<g>
		<path fill="#000F4C" d="M388,201.1h-14c-1.1,0-2-0.9-2-2s0.9-2,2-2h14c1.1,0,2,0.9,2,2S389.1,201.1,388,201.1z"/>
	</g>
</g>
<g>
	<path fill="#FF7F00" d="M320.2,240.4c-0.6,0-1.1-0.5-1.1-1.1v-1.8l-0.4,0c-1.5-0.2-2.8-0.5-3.9-1.1c-1-0.5-1.3-1.8-0.6-2.7l0,0
		c0.5-0.8,1.6-1,2.4-0.6c1,0.6,2.4,1,4.1,1c1.4,0,2.4-0.6,2.4-1.5c0-1.2-1.4-1.5-2.8-1.8l-0.2,0c-2.8-0.5-6.5-1.2-6.5-4.9
		c0-2.6,2.1-4.6,5.3-5l0.4-0.1v-1.9c0-0.6,0.5-1.1,1.1-1.1l0,0c0.6,0,1.1,0.5,1.1,1.1v1.9l0.4,0.1c1,0.1,1.9,0.4,2.8,0.8
		c1.1,0.5,1.4,1.8,0.7,2.8l0,0c-0.5,0.7-1.4,0.9-2.2,0.6c-1.1-0.5-2.4-0.8-3.4-0.8c-1.8,0-2.1,0.9-2.1,1.4c0,1.2,1.4,1.4,2.9,1.7
		c3.2,0.6,6.6,1.4,6.6,4.8c0,3-1.9,4.9-5.4,5.4l-0.4,0.1v1.8C321.4,239.9,320.9,240.4,320.2,240.4L320.2,240.4z"/>
</g>
<g>
	<path fill="#000F4C" d="M354.9,252.2c-0.8,0-1.6-0.5-1.9-1.3c-0.4-1,0.1-2.2,1.1-2.6c2.4-0.9,4.8-2,7.1-3.1c1-0.5,2.2-0.1,2.7,0.9
		c0.5,1,0.1,2.2-0.9,2.7c-2.4,1.2-4.9,2.3-7.4,3.2C355.3,252.1,355.1,252.2,354.9,252.2z"/>
</g>
<g>
	<path fill="#000F4C" d="M285.3,252.2c-0.3,0-0.5,0-0.8-0.1c-2.5-1-5-2.1-7.4-3.2c-1-0.5-1.4-1.7-0.9-2.7c0.5-1,1.7-1.4,2.7-0.9
		c2.3,1.1,4.7,2.2,7.1,3.1c1,0.4,1.5,1.6,1.1,2.6C286.8,251.7,286.1,252.2,285.3,252.2z"/>
</g>
<g>
	<path fill="#FF7F00" d="M369.1,245.2c-0.7,0-1.4-0.3-1.8-1c-0.6-0.9-0.3-2.2,0.7-2.7c2.2-1.3,4.4-2.7,6.5-4.2
		c0.9-0.6,2.1-0.4,2.8,0.5c0.6,0.9,0.4,2.1-0.5,2.8c-2.2,1.6-4.5,3-6.8,4.4C369.7,245.1,369.4,245.2,369.1,245.2z"/>
</g>
<g>
	<path fill="#FF7F00" d="M271.1,245.2c-0.4,0-0.8-0.1-1.1-0.3c-2.3-1.4-4.6-2.9-6.8-4.4c-0.9-0.6-1.1-1.9-0.5-2.8
		c0.6-0.9,1.9-1.1,2.8-0.5c2.1,1.5,4.3,2.9,6.5,4.2c0.9,0.6,1.3,1.8,0.7,2.7C272.4,244.9,271.8,245.2,271.1,245.2z"/>
</g>
<g>
	<path fill="#000F4C" d="M381.9,236c-0.6,0-1.2-0.2-1.6-0.7c-0.7-0.8-0.6-2.1,0.2-2.8c2-1.7,3.9-3.4,5.7-5.2c0.8-0.8,2-0.8,2.8,0
		c0.8,0.8,0.8,2,0,2.8c-1.9,1.9-3.9,3.7-5.9,5.5C382.8,235.9,382.4,236,381.9,236z"/>
</g>
<g>
	<path fill="#000F4C" d="M258.3,236.1c-0.5,0-1-0.1-1.4-0.5c-2-1.7-4-3.6-5.9-5.5c-0.8-0.8-0.8-2,0-2.8c0.8-0.8,2-0.8,2.8,0
		c1.8,1.8,3.7,3.6,5.7,5.2c0.8,0.7,0.9,2,0.2,2.8C259.3,235.8,258.8,236,258.3,236.1z"/>
</g>
<g>
	<path fill="#FF7F00" d="M393.1,224.9c-0.5,0-1-0.1-1.4-0.5c-0.8-0.7-0.9-2-0.2-2.8c1.7-2,3.3-4,4.8-6.1c0.6-0.9,1.9-1.1,2.8-0.5
		c0.9,0.6,1.1,1.9,0.5,2.8c-1.6,2.2-3.2,4.3-5,6.4C394.2,224.6,393.7,224.8,393.1,224.9z"/>
</g>
<g>
	<path fill="#FF7F00" d="M247.1,224.9c-0.6,0-1.2-0.2-1.6-0.7c-1.7-2-3.4-4.2-5-6.4c-0.6-0.9-0.4-2.1,0.5-2.8
		c0.9-0.6,2.1-0.4,2.8,0.5c1.5,2.1,3.1,4.1,4.8,6.1c0.7,0.8,0.6,2.1-0.2,2.8C247.9,224.7,247.5,224.9,247.1,224.9z"/>
</g>
<g>
	<g>
		<path fill="#000F4C" d="M267.5,38.8c2.5,0,4.5-2,4.5-4.5s-2-4.5-4.5-4.5c-2.5,0-4.5,2-4.5,4.5S265,38.8,267.5,38.8L267.5,38.8z
			 M267.5,32.1c1.2,0,2.2,1,2.2,2.2s-1,2.2-2.2,2.2s-2.2-1-2.2-2.2S266.3,32.1,267.5,32.1L267.5,32.1z M431,127.3c-1.7,0-3,1.3-3,3
			c0,1.7,1.3,3,3,3c1.7,0,3-1.3,3-3C434,128.7,432.7,127.3,431,127.3L431,127.3z M431,131.8c-0.8,0-1.5-0.7-1.5-1.5
			c0-0.8,0.7-1.5,1.5-1.5c0.8,0,1.5,0.7,1.5,1.5C432.5,131.2,431.8,131.8,431,131.8L431,131.8z M344,82.3c-1.7,0-3,1.3-3,3
			c0,1.7,1.3,3,3,3c1.7,0,3-1.3,3-3C347,83.7,345.7,82.3,344,82.3L344,82.3z M344,86.8c-0.8,0-1.5-0.7-1.5-1.5
			c0-0.8,0.7-1.5,1.5-1.5c0.8,0,1.5,0.7,1.5,1.5C345.5,86.2,344.8,86.8,344,86.8L344,86.8z M408.5,38.8c-1.7,0-3,1.3-3,3
			c0,1.7,1.3,3,3,3c1.7,0,3-1.3,3-3C411.5,40.2,410.2,38.8,408.5,38.8L408.5,38.8z M408.5,43.3c-0.8,0-1.5-0.7-1.5-1.5
			c0-0.8,0.7-1.5,1.5-1.5c0.8,0,1.5,0.7,1.5,1.5C410,42.7,409.3,43.3,408.5,43.3L408.5,43.3z M266,83.8c0-1.7-1.3-3-3-3
			c-1.7,0-3,1.3-3,3c0,1.7,1.3,3,3,3C264.7,86.8,266,85.5,266,83.8L266,83.8z M261.5,83.8c0-0.8,0.7-1.5,1.5-1.5
			c0.8,0,1.5,0.7,1.5,1.5s-0.7,1.5-1.5,1.5C262.2,85.3,261.5,84.7,261.5,83.8L261.5,83.8z M209,116.8c0-1.7-1.3-3-3-3
			c-1.7,0-3,1.3-3,3s1.3,3,3,3C207.7,119.8,209,118.5,209,116.8L209,116.8z M204.5,116.8c0-0.8,0.7-1.5,1.5-1.5
			c0.8,0,1.5,0.7,1.5,1.5c0,0.8-0.7,1.5-1.5,1.5C205.2,118.3,204.5,117.7,204.5,116.8L204.5,116.8z M204.5,116.8"/>
	</g>
	<g>
		<path fill="#FF7F00" d="M227.9,62.8l2.2-2.9l-1.4-0.8l-1.4,3.3h0l-1.5-3.3l-1.4,0.8l2.2,2.9v0l-3.5-0.4V64l3.5-0.4v0l-2.2,2.9
			l1.3,0.8l1.5-3.3h0l1.4,3.3l1.5-0.8l-2.3-2.8v0l3.5,0.4v-1.6L227.9,62.8L227.9,62.8z M227.9,62.8"/>
	</g>
	<g>
		<path fill="#FF7F00" d="M384.2,86.9l-1.3,1.6l0.8,0.5l0.9-1.9h0l0.8,1.9l0.8-0.5l-1.3-1.6v0l2,0.2v-0.9l-2,0.3v0l1.3-1.7l-0.8-0.5
			l-0.8,1.9h0l-0.8-1.9l-0.8,0.5l1.3,1.7v0l-2-0.3v0.9L384.2,86.9L384.2,86.9z M384.2,86.9"/>
	</g>
	<g>
		<path fill="#FF7F00" d="M312.2,56.9l-1.3,1.6l0.8,0.5l0.9-1.9h0l0.8,1.9l0.8-0.5l-1.3-1.6v0l2,0.2v-0.9l-2,0.3v0l1.3-1.7l-0.8-0.5
			l-0.8,1.9h0l-0.8-1.9l-0.8,0.5l1.3,1.7v0l-2-0.3v0.9L312.2,56.9L312.2,56.9z M312.2,56.9"/>
	</g>
	<g>
		<path fill="#FF7F00" d="M437,72.9v-1.6l-3.5,0.5v0l2.2-2.9l-1.4-0.8l-1.4,3.2h0l-1.4-3.2l-1.4,0.8l2.2,2.8v0l-3.4-0.4v1.6l3.4-0.4
			v0l-2.2,2.8l1.3,0.8l1.5-3.2h0l1.4,3.2l1.5-0.8l-2.2-2.8v0L437,72.9z M437,72.9"/>
	</g>
	<g>
		<path fill="#FF7F00" d="M353.7,36.7l1.9-2.5l-1.2-0.7l-1.2,2.8h0l-1.2-2.8l-1.2,0.7l1.9,2.4v0l-2.9-0.4v1.3l2.9-0.4v0l-1.9,2.4
			l1.1,0.7l1.3-2.8h0l1.2,2.8l1.3-0.7l-1.9-2.4v0l3,0.4v-1.3L353.7,36.7L353.7,36.7z M353.7,36.7"/>
	</g>
</g>
</svg>
